<?xml version="1.0" standalone="no"?>
<!DOCTYPE svg PUBLIC "-//W3C//DTD SVG 20010904//EN"
 "http://www.w3.org/TR/2001/REC-SVG-20010904/DTD/svg10.dtd">
<svg version="1.0" xmlns="http://www.w3.org/2000/svg"
 width="512.000000pt" height="512.000000pt" viewBox="0 0 512.000000 512.000000"
 preserveAspectRatio="xMidYMid meet">
<metadata>
Created by potrace 1.11, written by Peter Selinger 2001-2013
</metadata>
<g transform="translate(0.000000,512.000000) scale(0.100000,-0.100000)"
fill="#000000" stroke="none">
<path d="M3495 4310 l-1619 -809 -13 31 c-7 17 -16 28 -19 25 -9 -9 -12 -2
426 -982 220 -492 400 -897 400 -900 0 -3 -106 -4 -236 -3 l-235 3 -86 208
-86 207 -452 0 -453 0 -30 -72 c-17 -40 -51 -123 -76 -184 -25 -62 -51 -124
-57 -138 l-12 -26 -202 0 -202 0 -11 -25 c-26 -56 -32 -55 222 -55 177 0 237
3 243 13 4 6 42 94 83 193 l75 181 1983 -988 1982 -987 0 2559 c0 1407 -1
2559 -2 2558 -2 0 -732 -365 -1623 -809z m587 -718 c173 -48 278 -104 377
-203 123 -121 181 -273 181 -474 0 -385 -238 -634 -665 -695 -38 -5 -184 -10
-322 -10 l-253 0 0 -270 0 -270 -225 0 -225 0 0 976 0 975 528 -3 c503 -4 531
-5 604 -26z"/>
<path d="M3408 3255 c-5 -5 -8 -159 -8 -342 l0 -334 263 3 c248 3 265 5 321
27 76 30 147 96 177 164 32 74 33 210 0 282 -40 90 -116 151 -226 182 -56 16
-515 31 -527 18z"/>
<path d="M1562 3146 c-23 -50 -292 -705 -292 -710 0 -3 137 -6 305 -6 168 0
305 3 305 8 0 10 -291 715 -300 725 -3 4 -12 -4 -18 -17z"/>
<path d="M563 2846 c-310 -154 -563 -283 -563 -286 0 -11 713 -361 720 -353
12 11 413 914 409 918 -2 1 -257 -124 -566 -279z"/>
</g>
</svg>
